<svg width="19" height="19" viewBox="0 0 19 19" fill="none">
<path d="M10.6867 9.21156V2.31119C10.6867 1.63901 10.1907 1.09348 9.57967 1.09348C8.9686 1.09348 8.47266 1.63901 8.47266 2.31119V9.21156" stroke="#101828" stroke-linecap="round" stroke-linejoin="round"/>
<path d="M10.6875 3.81488C10.6875 3.12742 11.1834 2.56949 11.7945 2.56949C12.4056 2.56949 12.9015 3.12742 12.9015 3.81488V9.21156" stroke="#101828" stroke-linecap="round" stroke-linejoin="round"/>
<path d="M8.2955 3.7995C8.2955 3.12053 7.7862 2.56949 7.15867 2.56949C6.53115 2.56949 6.02185 3.12053 6.02185 3.7995V8.30955V10.7696L4.58112 9.21073C4.12108 8.71299 3.37533 8.71299 2.91529 9.21073C2.51816 9.64042 2.45677 10.3136 2.76826 10.8188L5.42994 15.1386C6.27347 16.5072 7.69298 17.3296 9.21329 17.3296H10.5691C13.0808 17.3296 15.1164 15.1271 15.1164 12.4096V8.30955V5.43952C15.1164 4.76055 14.6071 4.2095 13.9796 4.2095C13.3521 4.2095 12.8428 4.76055 12.8428 5.43952" stroke="#101828" stroke-linecap="round" stroke-linejoin="round"/>
</svg>
